<?xml version="1.0" encoding="UTF-8" standalone="no"?>
<svg
   xmlns:dc="http://purl.org/dc/elements/1.1/"
   xmlns:cc="http://creativecommons.org/ns#"
   xmlns:rdf="http://www.w3.org/1999/02/22-rdf-syntax-ns#"
   xmlns:svg="http://www.w3.org/2000/svg"
   xmlns="http://www.w3.org/2000/svg"
   xmlns:sodipodi="http://sodipodi.sourceforge.net/DTD/sodipodi-0.dtd"
   xmlns:inkscape="http://www.inkscape.org/namespaces/inkscape"
   width="22"
   height="22"
   viewBox="0 0 22 22"
   id="svg2"
   version="1.1"
   inkscape:version="0.91 r13725"
   sodipodi:docname="link.svg">
  <metadata
     id="metadata12">
    <rdf:RDF>
      <cc:Work
         rdf:about="">
        <dc:format>image/svg+xml</dc:format>
        <dc:type
           rdf:resource="http://purl.org/dc/dcmitype/StillImage" />
        <dc:title></dc:title>
      </cc:Work>
    </rdf:RDF>
  </metadata>
  <defs
     id="defs10" />
  <sodipodi:namedview
     pagecolor="#ffffff"
     bordercolor="#666666"
     borderopacity="1"
     objecttolerance="10"
     gridtolerance="10"
     guidetolerance="10"
     inkscape:pageopacity="0"
     inkscape:pageshadow="2"
     inkscape:window-width="1855"
     inkscape:window-height="1056"
     id="namedview8"
     showgrid="false"
     inkscape:zoom="27.812867"
     inkscape:cx="14.381573"
     inkscape:cy="8.0998955"
     inkscape:window-x="65"
     inkscape:window-y="24"
     inkscape:window-maximized="1"
     inkscape:current-layer="svg2" />
  <path
     d="m 0,-2 24,0 0,24 -24,0 z"
     id="path4"
     inkscape:connector-curvature="0"
     style="fill:none" />
  <path
     d="M 4.52,11 C 4.52,9.632 5.632,8.52 7,8.52 l 3.2,0 0,-1.5200001 -3.2,0 C 4.792,6.9999999 3,8.792 3,11 c 0,2.208 1.792,4 4,4 l 3.2,0 0,-1.52 -3.2,0 C 5.632,13.48 4.52,12.368 4.52,11 Z m 3.28,0.8 6.399999,0 0,-1.6 -6.399999,0 0,1.6 z m 7.199999,-4.8000001 -3.199999,0 0,1.5200001 3.199999,0 c 1.368,0 2.48,1.112 2.48,2.48 0,1.368 -1.112,2.48 -2.48,2.48 l -3.199999,0 0,1.52 3.199999,0 c 2.208,0 4,-1.792 4,-4 0,-2.208 -1.792,-4.0000001 -4,-4.0000001 z"
     id="path6"
     style="fill:#918fbc;fill-opacity:1"
     inkscape:connector-curvature="0" />
</svg>
